<svg width="70" height="70" viewBox="0 0 70 70" fill="none" xmlns="http://www.w3.org/2000/svg">
<g clip-path="url(#clip0_76_75)">
<path d="M35.0801 69.5C25.9301 69.5 17.1549 65.8652 10.6849 59.3952C4.21489 52.9252 0.580078 44.15 0.580078 35C0.580078 25.85 4.21489 17.0748 10.6849 10.6048C17.1549 4.13481 25.9301 0.5 35.0801 0.5C35.7431 0.5 36.379 0.763392 36.8478 1.23223C37.3167 1.70107 37.5801 2.33696 37.5801 3C37.5801 3.66304 37.3167 4.29893 36.8478 4.76777C36.379 5.23661 35.7431 5.5 35.0801 5.5C27.2562 5.5 19.7528 8.60803 14.2204 14.1404C8.6881 19.6727 5.58008 27.1761 5.58008 35C5.58008 42.8239 8.6881 50.3273 14.2204 55.8596C19.7528 61.392 27.2562 64.5 35.0801 64.5C35.7431 64.5 36.379 64.7634 36.8478 65.2322C37.3167 65.7011 37.5801 66.337 37.5801 67C37.5801 67.663 37.3167 68.2989 36.8478 68.7678C36.379 69.2366 35.7431 69.5 35.0801 69.5Z" fill="#3A3A3C"/>
<path d="M65.854 37.5H30.5C29.837 37.5 29.2011 37.2366 28.7322 36.7678C28.2634 36.2989 28 35.663 28 35C28 34.337 28.2634 33.7011 28.7322 33.2322C29.2011 32.7634 29.837 32.5 30.5 32.5H65.854C66.517 32.5 67.1529 32.7634 67.6218 33.2322C68.0906 33.7011 68.354 34.337 68.354 35C68.354 35.663 68.0906 36.2989 67.6218 36.7678C67.1529 37.2366 66.517 37.5 65.854 37.5Z" fill="#ED1C24"/>
<path d="M53.0718 52.876C52.5773 52.8761 52.0938 52.7295 51.6826 52.4548C51.2714 52.1801 50.9509 51.7896 50.7616 51.3328C50.5724 50.8759 50.5229 50.3732 50.6194 49.8882C50.7159 49.4031 50.9541 48.9576 51.3038 48.608L64.0718 35.838C64.2911 35.6138 64.4138 35.3126 64.4138 34.999C64.4138 34.6854 64.2911 34.3842 64.0718 34.16L51.3038 21.4C51.0712 21.1678 50.8867 20.8921 50.7606 20.5886C50.6346 20.2851 50.5696 19.9598 50.5693 19.6311C50.5691 19.3025 50.6335 18.977 50.759 18.6733C50.8845 18.3696 51.0686 18.0936 51.3008 17.861C51.533 17.6284 51.8087 17.4439 52.1122 17.3179C52.4157 17.1918 52.741 17.1268 53.0697 17.1266C53.3983 17.1263 53.7238 17.1907 54.0275 17.3162C54.3312 17.4417 54.6072 17.6258 54.8398 17.858L67.5998 30.626C68.7564 31.7879 69.4057 33.3606 69.4057 35C69.4057 36.6394 68.7564 38.2121 67.5998 39.374L54.8398 52.144C54.6079 52.3765 54.3323 52.5608 54.0288 52.6865C53.7254 52.8121 53.4002 52.8765 53.0718 52.876Z" fill="#ED1C24"/>
</g>
<defs>
<clipPath id="clip0_76_75">
<rect width="70" height="70" fill="white"/>
</clipPath>
</defs>
</svg>
